<?xml version="1.0" encoding="UTF-8"?>
<svg id="Layer_2" data-name="Layer 2" xmlns="http://www.w3.org/2000/svg" viewBox="0 0 806.46 500.84">
  <defs>
    <style>
      .cls-1 {
        letter-spacing: 0em;
      }

      .cls-2 {
        font-family: Bangers-Regular, Bangers;
        font-size: 88.81px;
      }

      .cls-3 {
        fill: #fff;
      }

      .cls-4 {
        fill: #f26d9a;
      }

      .cls-5 {
        letter-spacing: 0em;
      }

      .cls-6 {
        letter-spacing: 0em;
      }
    </style>
  </defs>
  <g id="Layer_1-2" data-name="Layer 1">
    <g>
      <polygon class="cls-4" points="322.06 116.85 399.54 0 496.82 107.13 580.58 71.06 580.76 136.97 777.11 116.79 689.73 244.19 806.46 309.83 662.8 340.29 710.18 394.51 586.24 386.75 593.42 454.96 503.36 410.94 447.36 500.84 366.57 420.87 297.34 492.13 276.82 425.74 146.97 449.22 204.57 346.14 28.49 309.61 183 230.55 117.89 172.91 219.42 159.91 183.75 69.81 322.06 116.85"/>
      <polygon points="316.21 116.54 389.7 5.56 481.21 107.68 560.37 73.34 560.37 136.48 745.76 117.65 662.95 239.46 772.98 302.63 637.29 331.43 681.88 383.49 564.91 375.74 571.51 441.09 486.61 398.69 433.52 484.67 357.46 407.86 291.93 475.94 272.74 412.29 150.1 434.45 204.73 335.86 38.62 300.42 184.66 225.1 123.35 169.71 219.22 157.53 185.78 71.13 316.21 116.54"/>
      <polygon class="cls-3" points="321.35 127.96 390.99 26.99 476.53 119.75 549.24 88.78 549.24 145.72 719.54 128.74 643.47 238.58 744.54 295.55 619.9 321.52 660.86 368.47 553.41 361.48 559.48 420.41 481.49 382.18 432.72 459.71 362.86 390.44 302.66 451.83 285.03 394.44 172.38 414.42 222.56 325.52 69.97 293.55 204.13 225.63 147.8 175.69 235.87 164.7 205.15 86.79 321.35 127.96"/>
      <polygon class="cls-4" points="645.75 112.71 704.41 8.3 726.09 19.69 645.75 112.71"/>
      <polygon class="cls-4" points="670.29 108.87 720.89 64.79 738.9 81.99 670.29 108.87"/>
      <polygon class="cls-4" points="631.08 110.22 629.96 55.08 649.02 54.38 631.08 110.22"/>
      <polygon class="cls-4" points="119.47 205.91 0 197.39 1.06 172.93 119.47 205.91"/>
      <polygon class="cls-4" points="105.52 185.35 44.07 158.39 51.94 134.76 105.52 185.35"/>
      <polygon class="cls-4" points="123.47 220.23 74.07 244.77 65.31 227.83 123.47 220.23"/>
    </g>
    <text class="cls-2" transform="translate(272.46 220.23)"><tspan x="0" y="0">Meet the </tspan><tspan x="-41.76" y="106.57">Char</tspan><tspan class="cls-6" x="112.09" y="106.57">a</tspan><tspan class="cls-1" x="149.82" y="106.57">cte</tspan><tspan class="cls-5" x="249.03" y="106.57">r</tspan><tspan x="287.63" y="106.57">s</tspan></text>
  </g>
</svg>