<?xml version="1.0" encoding="UTF-8"?>
<svg id="Layer_2" data-name="Layer 2" xmlns="http://www.w3.org/2000/svg" viewBox="0 0 792 598.11">
  <defs>
    <style>
      .cls-1 {
        letter-spacing: 0em;
      }

      .cls-2 {
        font-family: Bangers-Regular, Bangers;
        font-size: 96.66px;
      }

      .cls-3 {
        fill: #cbff4d;
      }

      .cls-4 {
        fill: #fff;
      }

      .cls-5 {
        letter-spacing: 0em;
      }

      .cls-6 {
        letter-spacing: 0em;
      }
    </style>
  </defs>
  <g id="Layer_1-2" data-name="Layer 1">
    <g>
      <path class="cls-3" d="M83.29,105.39c8.09,2.85,19.27,7.28,32.41,12.01,36.39,13.12,87.79,28.62,130.1,19.38,36.3-7.93,64.36-26.73,75.51-47.2,7.39-13.58,12.48-30.93,15.83-48.09,2.19-11.22,3.63-22.36,4.48-32.33.13,7.34,2.71,19.19,7.45,32.48,11.15,31.26,34.25,70.47,65.42,77.63,30.52,7,56.83,2.41,80.74-6.98,31.95-12.54,79.74-59.32,116.47-107.62-19.07,26.33-31.83,48.31-44.67,74.82-12.84,26.51-25.49,54.62-15.9,82.37,14.44,41.79,56.58,61.26,102.17,64.43,26.85,1.86,53.22,1.77,78.92-.74,20.36-1.99,40.32-5.48,59.78-10.72-22.26,7.6-44.06,15.4-64.64,25.14-18.64,8.82-36.28,19.22-52.36,32.5-33.84,27.94-56.93,68.32-34.57,105.45,7.64,12.69,26.2,31.63,50.31,48.44,17.91,12.48,38.88,23.79,60.71,30.48-16.28-2.28-34.66-5.28-53.94-7.76-54.04-6.96-115.12-9.87-156.72,18.32-26.98,18.28-42.09,46.62-50.02,74.87-5.57,19.82-7.61,39.59-7.75,55.83-8.51-12.64-18.33-26.66-29.52-40.36-21.91-26.82-49.08-52.41-81.96-63.93-46.59-16.32-94.26,2.17-131.06,34.1-13.72,11.91-25.93,25.69-36.01,40.23,3.41-16.78,6.45-34.22,7.97-51.59,3.48-39.81-.98-79.27-27.02-109.52-28.17-32.73-82.28-48.45-132.37-55.84-16.41-2.42-32.39-3.95-46.88-4.89,15.27-2.41,32.48-5.8,49.75-11.03,43.06-13.03,86.48-37.5,100.95-86.73,12.19-41.46-17.87-88.39-48.92-120.61-8.42-8.73-16.91-16.38-24.65-22.55Z"/>
      <path d="M75.3,100.71c7.9,2.85,18.82,7.28,31.64,12.01,35.53,13.12,85.71,28.62,127.02,19.38,35.44-7.93,62.84-26.73,73.72-47.2,7.22-13.58,12.19-30.93,15.46-48.09,2.14-11.22,3.54-22.36,4.38-32.33.12,7.34,2.65,19.19,7.27,32.48,10.89,31.26,33.44,70.47,63.88,77.63,29.8,7,55.49,2.41,78.83-6.98,31.2-12.54,77.85-59.32,113.72-107.62-18.62,26.33-31.08,48.31-43.61,74.82-12.54,26.51-24.89,54.62-15.52,82.37,14.1,41.79,55.24,61.26,99.76,64.43,26.22,1.86,51.96,1.77,77.06-.74,19.88-1.99,39.36-5.48,58.36-10.72-21.74,7.6-43.02,15.4-63.12,25.14-18.2,8.82-35.42,19.22-51.12,32.5-33.04,27.94-55.59,68.32-33.75,105.45,7.46,12.69,25.58,31.63,49.12,48.44,17.48,12.48,37.96,23.79,59.27,30.48-15.9-2.28-33.85-5.28-52.67-7.76-52.76-6.96-112.4-9.87-153.01,18.32-26.35,18.28-41.09,46.62-48.84,74.87-5.44,19.82-7.43,39.59-7.57,55.83-8.31-12.64-17.89-26.66-28.82-40.36-21.39-26.82-47.92-52.41-80.02-63.93-45.49-16.32-92.04,2.17-127.96,34.1-13.4,11.91-25.32,25.69-35.16,40.23,3.33-16.78,6.29-34.22,7.78-51.59,3.4-39.81-.96-79.27-26.38-109.52-27.51-32.73-80.34-48.45-129.24-55.84-16.02-2.42-31.62-3.95-45.77-4.89,14.91-2.41,31.71-5.8,48.57-11.03,42.05-13.03,84.43-37.5,98.56-86.73,11.9-41.46-17.45-88.39-47.76-120.61-8.22-8.73-16.51-16.38-24.06-22.55Z"/>
      <path class="cls-4" d="M121.39,128.57c7.27,2.64,16.91,6.28,28.09,9.86,27.63,8.86,64.67,17.38,98.58,9.73,30.03-6.77,55.82-19.45,65.04-36.94,6.38-12.09,10.68-27.69,13.44-42.95,1.62-8.96,2.71-17.81,3.37-25.77.08,4.72,1.68,11.63,4.53,19.6,9.83,27.54,34.57,67.78,63.07,74.54,25.25,5.99,45.15,4.18,64.92-3.84,22.11-8.97,50.97-32.56,77.61-64.19,5.21-6.18,10.33-12.67,15.3-19.42-5.62,8.01-10.16,14.71-14.17,21.03-7.24,11.43-12.71,21.64-19.55,36.22-10.62,22.65-15.27,44.77-7.34,68.49,11.95,35.71,46.94,51,84.53,55.06,19.56,2.11,38.39,3.29,57.08,2.51,17.25-.72,34.38-3.11,51.86-7.96-17.3,5.18-32.23,10.58-46.27,17.55-14.61,7.26-28.24,16.22-42.53,28.4-28,23.88-47.11,58.38-28.6,90.12,6.7,11.5,20.47,31.33,39.77,48.12,12.42,10.81,27.14,20.36,43.74,25.61-15.89-3.55-34.09-7.14-53.02-9.26-39.38-4.4-81.94-2.41-113.47,19.66-26,18.2-42.59,46.87-50.36,74.6-3.58,12.78-5.29,25.36-5.19,36.62-7.85-13.67-15.8-26.45-24.59-37.92-16.24-21.19-35.34-37.92-62.01-47.57-41.91-15.16-91.41-10.01-125.17,16.93-8.86,7.07-16.64,15.65-22.91,25.76,2.97-12.29,5.23-23.89,6.46-34.95,3.7-33.27-1.88-61.7-25.11-89.57-23.39-28.07-63.38-41.09-102.49-47.17-12.63-1.97-25.18-3.21-37.04-4,8.52-1.16,17.55-3.09,26.66-5.9,36.31-11.19,74.1-36.42,87.51-83.54,10.01-35.17-8.87-73.21-31.92-99.95-6.47-7.5-13.26-14.12-19.84-19.53Z"/>
      <polygon class="cls-3" points="599.12 170.02 713.88 90.92 730.7 113.92 599.12 170.02"/>
      <polygon class="cls-3" points="626.74 178.57 702.18 158.4 712.2 185.59 626.74 178.57"/>
      <polygon class="cls-3" points="585.07 159.91 612.12 101.7 632.4 110.73 585.07 159.91"/>
    </g>
    <text class="cls-2" transform="translate(280.15 263.64)"><tspan x="0" y="0">Read </tspan><tspan x="-77.78" y="115.99">the </tspan><tspan class="cls-6" x="51.73" y="115.99">C</tspan><tspan class="cls-5" x="90.8" y="115.99">o</tspan><tspan class="cls-1" x="137.81" y="115.99">mic</tspan></text>
  </g>
</svg>